<svg id="Capa_1" enable-background="new 0 0 502 502" height="512" viewBox="0 0 502 502" width="512" xmlns="http://www.w3.org/2000/svg" xmlns:xlink="http://www.w3.org/1999/xlink"><linearGradient id="SVGID_1_" gradientUnits="userSpaceOnUse" x1="251" x2="251" y1="470.7" y2="23.17"><stop offset="0" stop-color="#ec6476"/><stop offset="1" stop-color="#ec909c"/></linearGradient><linearGradient id="lg1"><stop offset="0" stop-color="#68d0e8"/><stop offset="1" stop-color="#a7e7f5"/></linearGradient><linearGradient id="SVGID_2_" gradientUnits="userSpaceOnUse" x1="82.46" x2="82.46" xlink:href="#lg1" y1="473.242" y2="309.536"/><linearGradient id="SVGID_3_" gradientTransform="matrix(-1 0 0 1 702 0)" gradientUnits="userSpaceOnUse" x1="282.46" x2="282.46" xlink:href="#lg1" y1="473.242" y2="309.536"/><g><path d="m.77 194.927c-8.775-88.143 58.536-167.223 147.106-165.908 40.536.602 77.04 17.765 103.124 44.989 26.084-27.225 62.588-44.387 103.124-44.989 88.569-1.315 155.88 77.765 147.106 165.908-12.457 125.131-138.739 220.49-213.558 259.002-23.039 11.859-50.306 11.859-73.345 0-74.818-38.512-201.1-133.871-213.557-259.002z" fill="url(#SVGID_1_)"/><path d="m129.896 361.07c2.75-11.923 16.686-17.727 27.212-10.409 5.896 4.1 8.442 11.506 6.839 18.506-.717 3.134-1.3 6.525-1.772 10.204 22.025 16.725 45.678 31.86 68.171 43.438 12.73 6.553 28.081 6.809 41.309 0 .803-.414 1.661-.859 2.569-1.337 8.059-4.238 18.026-1.606 22.921 6.072 5.493 8.617 2.483 20.12-6.563 24.872-.98.515-1.952 1.02-2.915 1.516-23.099 11.89-50.537 11.757-73.626-.151-25.62-13.214-57.227-33.075-88.221-58.485.583-13.046 1.775-24.252 4.076-34.226z" fill="#e05467"/><path d="m283.48 191.899-63.898-63.898c-6.292-6.291-6.29-16.477 0-22.766l31.324-31.324c-5.321-5.544-11.081-10.662-17.213-15.314l-30.374 30.374c-15.283 15.282-15.28 40.014-.001 55.293l63.897 63.897c6.277 6.276 6.277 16.489 0 22.766l-29.493 29.493c-4.491 4.491-4.491 11.772 0 16.264 4.491 4.49 11.771 4.491 16.264 0l29.493-29.493c15.244-15.243 15.244-40.047.001-55.292z" fill="#e05467"/><path d="m26.362 423.522c0 27.033 21.68 49.002 48.602 49.468 27.635.478 50.327-22.85 50.349-50.488.03-37.275 1.717-61.863 11.846-82.06 5.026-10.022-4.303-21.332-15.16-18.534-48.825 12.585-95.637 52.063-95.637 101.614z" fill="url(#SVGID_2_)"/><path d="m475.638 423.522c0 27.033-21.68 49.002-48.602 49.468-27.635.478-50.327-22.85-50.349-50.488-.03-37.275-1.717-61.863-11.846-82.06-5.026-10.022 4.303-21.332 15.16-18.534 48.825 12.585 95.637 52.063 95.637 101.614z" fill="url(#SVGID_3_)"/><g><ellipse cx="163.114" cy="316.829" fill="#efb1d2" rx="14.936" ry="12.003"/><ellipse cx="338.886" cy="316.829" fill="#efb1d2" rx="14.936" ry="12.003"/><circle cx="188.721" cy="287.211" fill="#fff" r="29.618"/><circle cx="313.279" cy="287.211" fill="#fff" r="29.618"/><path d="m178.938 297.641c-1.222 0-2.461-.299-3.607-.929-3.63-1.996-4.954-6.556-2.959-10.186 3.279-5.964 9.543-9.669 16.349-9.669h.001c6.806.001 13.07 3.705 16.348 9.669 1.996 3.63.67 8.19-2.959 10.186-3.628 1.997-8.19.67-10.185-2.959-.94-1.71-2.554-1.895-3.204-1.896-.65 0-2.264.186-3.205 1.896-1.365 2.483-3.932 3.888-6.579 3.888z" fill="#353544"/><path d="m323.062 297.641c-2.647.001-5.213-1.404-6.579-3.888-.94-1.71-2.554-1.896-3.205-1.896-.65.001-2.264.186-3.204 1.896-1.995 3.629-6.556 4.953-10.185 2.959-3.63-1.995-4.955-6.556-2.959-10.186 3.278-5.964 9.543-9.668 16.348-9.669 6.806 0 13.07 3.705 16.349 9.669 1.996 3.63.671 8.189-2.959 10.186-1.145.63-2.385.929-3.606.929z" fill="#353544"/><g><path d="m262.671 327.015h-23.342c-6.508 0-11.784-5.276-11.784-11.784 0-6.508 5.276-11.784 11.784-11.784h23.342c6.508 0 11.784 5.276 11.784 11.784 0 6.508-5.276 11.784-11.784 11.784z" fill="#353544"/></g></g><g fill="#ffb8c1"><path d="m465.716 150.547c-4.198 0-8.106-2.664-9.494-6.867-.865-2.618-1.836-5.235-2.885-7.778-2.107-5.105.322-10.951 5.427-13.059 5.105-2.109 10.952.322 13.059 5.428 1.234 2.987 2.374 6.063 3.39 9.138 1.732 5.244-1.116 10.899-6.36 12.632-1.041.342-2.098.506-3.137.506z"/><path d="m441.313 107.834c-2.773 0-5.532-1.146-7.509-3.391-10.523-11.95-23.061-21.107-37.264-27.219-5.073-2.183-7.417-8.064-5.234-13.138 2.183-5.073 8.066-7.418 13.138-5.233 16.707 7.188 32.049 18.382 44.369 32.371 3.65 4.146 3.249 10.464-.896 14.114-1.899 1.674-4.257 2.496-6.604 2.496z"/></g></g></svg>